<svg width="45" height="45" viewBox="0 0 45 45" fill="none" xmlns="http://www.w3.org/2000/svg">
<path d="M45 22.5C45 34.7263 34.95 44.5957 22.5 44.5957C10.05 44.5957 0 34.7263 0 22.5C0 10.2737 10.05 0.404236 22.5 0.404236C34.95 0.404236 45 10.2737 45 22.5Z" fill="#FFDD67"/>
<path d="M35.2512 26.9192C35.2512 26.33 34.8762 25.5935 33.9012 25.3725C31.2762 24.857 27.4512 24.415 22.5012 24.415C17.5512 24.415 13.7262 24.9306 11.1012 25.3725C10.1262 25.5935 9.75122 26.33 9.75122 26.9192C9.75122 32.2959 13.9512 37.6725 22.5012 37.6725C31.0512 37.6725 35.2512 32.2959 35.2512 26.9192Z" fill="#664E27"/>
<path d="M19.8748 18.7439C18.4498 14.9876 16.3498 13.0726 14.2498 13.0726C12.1498 13.0726 10.0498 14.9876 8.62479 18.7439C8.47479 19.1121 9.22479 19.775 9.59979 19.4067C10.9498 18.0073 12.5998 17.4181 14.2498 17.4181C15.8998 17.4181 17.5498 18.0073 18.8998 19.4067C19.3498 19.775 20.0248 19.1121 19.8748 18.7439Z" fill="#664E27"/>
<path d="M36.3008 18.7439C34.8758 14.9876 32.7758 13.0726 30.6758 13.0726C28.5758 13.0726 26.4758 14.9876 25.0508 18.7439C24.9008 19.1121 25.6508 19.775 26.0258 19.4067C27.3758 18.0073 29.0258 17.4181 30.6758 17.4181C32.4008 17.4181 33.9758 18.0073 35.3258 19.4067C35.7008 19.775 36.4508 19.1121 36.3008 18.7439Z" fill="#664E27"/>
<path d="M32.0237 27.1403C30.3737 26.8457 26.9237 26.4037 22.4987 26.4037C18.0737 26.4037 14.6237 26.8457 12.9737 27.1403C11.9987 27.2876 11.9237 27.6558 11.9987 28.2451C12.0737 28.5397 12.0737 28.9816 12.2237 29.4235C12.2987 29.8654 12.4487 30.0864 13.1987 30.0127C14.6237 29.8654 30.4487 29.8654 31.8737 30.0127C32.6237 30.0864 32.6987 29.8654 32.8487 29.4235C32.9237 28.9816 32.9987 28.6133 33.0737 28.2451C33.0737 27.6558 32.9987 27.2876 32.0237 27.1403Z" fill="white"/>
<path d="M45 22.5C45 34.7263 34.95 44.5957 22.5 44.5957C10.05 44.5957 0 34.7263 0 22.5C0 10.2737 10.05 0.404236 22.5 0.404236C34.95 0.404236 45 10.2737 45 22.5Z" fill="#FFDD67"/>
<path d="M35.2512 26.9192C35.2512 26.33 34.8762 25.5935 33.9012 25.3725C31.2762 24.857 27.4512 24.415 22.5012 24.415C17.5512 24.415 13.7262 24.9306 11.1012 25.3725C10.1262 25.5935 9.75122 26.33 9.75122 26.9192C9.75122 32.2959 13.9512 37.6725 22.5012 37.6725C31.0512 37.6725 35.2512 32.2959 35.2512 26.9192Z" fill="#664E27"/>
<path d="M19.8748 18.7439C18.4498 14.9876 16.3498 13.0726 14.2498 13.0726C12.1498 13.0726 10.0498 14.9876 8.62479 18.7439C8.47479 19.1121 9.22479 19.775 9.59979 19.4067C10.9498 18.0073 12.5998 17.4181 14.2498 17.4181C15.8998 17.4181 17.5498 18.0073 18.8998 19.4067C19.3498 19.775 20.0248 19.1121 19.8748 18.7439Z" fill="#664E27"/>
<path d="M36.3008 18.7439C34.8758 14.9876 32.7758 13.0726 30.6758 13.0726C28.5758 13.0726 26.4758 14.9876 25.0508 18.7439C24.9008 19.1121 25.6508 19.775 26.0258 19.4067C27.3758 18.0073 29.0258 17.4181 30.6758 17.4181C32.4008 17.4181 33.9758 18.0073 35.3258 19.4067C35.7008 19.775 36.4508 19.1121 36.3008 18.7439Z" fill="#664E27"/>
<path d="M32.0237 27.1403C30.3737 26.8457 26.9237 26.4037 22.4987 26.4037C18.0737 26.4037 14.6237 26.8457 12.9737 27.1403C11.9987 27.2876 11.9237 27.6558 11.9987 28.2451C12.0737 28.5397 12.0737 28.9816 12.2237 29.4235C12.2987 29.8654 12.4487 30.0127 13.1987 30.0127H31.8737C32.6237 30.0127 32.6987 29.8654 32.8487 29.4235C32.9237 28.9816 32.9987 28.6133 33.0737 28.2451C33.0737 27.6558 32.9987 27.2876 32.0237 27.1403Z" fill="white"/>
</svg>
