<svg width="45" height="45" viewBox="0 0 45 45" fill="none" xmlns="http://www.w3.org/2000/svg">
<path d="M22.5 44.5958C34.9264 44.5958 45 34.7032 45 22.5C45 10.2969 34.9264 0.404297 22.5 0.404297C10.0736 0.404297 0 10.2969 0 22.5C0 34.7032 10.0736 44.5958 22.5 44.5958Z" fill="#FFDD67"/>
<path d="M13.6494 22.9419C15.7205 22.9419 17.3994 21.2931 17.3994 19.2593C17.3994 17.2254 15.7205 15.5767 13.6494 15.5767C11.5783 15.5767 9.89941 17.2254 9.89941 19.2593C9.89941 21.2931 11.5783 22.9419 13.6494 22.9419Z" fill="#664E27"/>
<path d="M30.9001 22.9419C32.9712 22.9419 34.6501 21.2931 34.6501 19.2593C34.6501 17.2254 32.9712 15.5767 30.9001 15.5767C28.8291 15.5767 27.1501 17.2254 27.1501 19.2593C27.1501 21.2931 28.8291 22.9419 30.9001 22.9419Z" fill="#664E27"/>
<path d="M27.4505 34.2844H17.1005C15.9755 34.2844 15.9755 31.3383 17.1005 31.3383H27.3755C28.5755 31.3383 28.5755 34.2844 27.4505 34.2844Z" fill="#664E27"/>
</svg>
