<svg width="45" height="45" viewBox="0 0 45 45" fill="none" xmlns="http://www.w3.org/2000/svg">
<path d="M22.5 44.5958C34.9264 44.5958 45 34.7032 45 22.5C45 10.2969 34.9264 0.404297 22.5 0.404297C10.0736 0.404297 0 10.2969 0 22.5C0 34.7032 10.0736 44.5958 22.5 44.5958Z" fill="#FFDD67"/>
<path d="M29.2499 35.5365C24.8999 32.0012 20.0999 32.0012 15.7499 35.5365C15.2249 35.9784 14.7749 35.2419 15.1499 34.579C16.4999 32.0749 19.1249 29.7916 22.4999 29.7916C25.8749 29.7916 28.5749 32.0749 29.8499 34.579C30.2249 35.1683 29.7749 35.9048 29.2499 35.5365Z" fill="#664E27"/>
<path d="M6.14918 17.2708C5.02418 20.7324 6.59918 24.636 10.1242 26.1827C13.5742 27.8031 17.6242 26.551 19.6492 23.4576L14.4742 17.7863L6.14918 17.2708Z" fill="white"/>
<path d="M9.14713 17.9334C8.09713 20.0693 9.07213 22.6472 11.2471 23.6046C13.4221 24.6358 16.0471 23.6783 17.0221 21.5424C17.7721 20.143 9.82213 16.534 9.14713 17.9334Z" fill="#664E27"/>
<path d="M6.14832 17.2707C7.34832 16.5342 8.77332 16.1659 10.1983 16.1659C11.6233 16.1659 13.0483 16.5342 14.3983 17.1234C15.6733 17.7126 16.8733 18.5964 17.8483 19.6276C18.7483 20.7323 19.4983 21.9844 19.6483 23.3838C18.6733 22.4264 17.6983 21.6162 16.6483 20.8797C15.5983 20.1431 14.5483 19.5539 13.4983 19.112C12.3733 18.5964 11.2483 18.2282 10.0483 17.8599C8.69831 17.6389 7.49832 17.418 6.14832 17.2707Z" fill="#664E27"/>
<path d="M38.8497 17.2708C39.9747 20.7324 38.3997 24.636 34.8747 26.1827C31.4247 27.8031 27.3747 26.551 25.3497 23.4576L30.5247 17.7863L38.8497 17.2708Z" fill="white"/>
<path d="M35.8487 17.9334C36.8987 20.0693 35.9237 22.6472 33.7487 23.6046C31.5737 24.6358 28.9487 23.6783 27.9737 21.5424C27.2237 20.143 35.1737 16.534 35.8487 17.9334Z" fill="#664E27"/>
<path d="M38.8488 17.2707C37.6488 16.5342 36.2238 16.1659 34.7988 16.1659C33.3738 16.1659 31.9488 16.5342 30.5988 17.1234C29.3238 17.7126 28.1238 18.5964 27.1488 19.6276C26.2488 20.7323 25.4988 21.9844 25.3488 23.3838C26.3238 22.4264 27.2988 21.6162 28.3488 20.8797C29.3988 20.1431 30.4488 19.5539 31.4988 19.112C32.6238 18.5964 33.7488 18.2282 34.9488 17.8599C36.2988 17.6389 37.4988 17.418 38.8488 17.2707Z" fill="#664E27"/>
</svg>
