<svg width="45" height="45" viewBox="0 0 45 45" fill="none" xmlns="http://www.w3.org/2000/svg">
<path d="M22.5 44.5958C34.9264 44.5958 45 34.7032 45 22.5C45 10.2969 34.9264 0.404297 22.5 0.404297C10.0736 0.404297 0 10.2969 0 22.5C0 34.7032 10.0736 44.5958 22.5 44.5958Z" fill="#FFDD67"/>
<path d="M13.8737 22.2053C15.9447 22.2053 17.6237 20.5566 17.6237 18.5227C17.6237 16.4889 15.9447 14.8401 13.8737 14.8401C11.8026 14.8401 10.1237 16.4889 10.1237 18.5227C10.1237 20.5566 11.8026 22.2053 13.8737 22.2053Z" fill="#664E27"/>
<path d="M31.1244 22.2053C33.1955 22.2053 34.8744 20.5566 34.8744 18.5227C34.8744 16.4889 33.1955 14.8401 31.1244 14.8401C29.0533 14.8401 27.3744 16.4889 27.3744 18.5227C27.3744 20.5566 29.0533 22.2053 31.1244 22.2053Z" fill="#664E27"/>
<path d="M15.7483 33.9898C20.0983 30.4544 24.8983 30.4544 29.2483 33.9898C29.7733 34.4317 30.2233 33.6952 29.8483 33.0323C28.4983 30.5281 25.8733 28.2449 22.4983 28.2449C19.1233 28.2449 16.4233 30.5281 15.1483 33.0323C14.7733 33.6952 15.2233 34.4317 15.7483 33.9898Z" fill="#664E27"/>
</svg>
