<svg width="45" height="41" viewBox="0 0 45 41" fill="none" xmlns="http://www.w3.org/2000/svg">
<path d="M22.2942 40.3771C34.607 40.3771 44.5884 31.4925 44.5884 20.5328C44.5884 9.57311 34.607 0.688538 22.2942 0.688538C9.98146 0.688538 0 9.57311 0 20.5328C0 31.4925 9.98146 40.3771 22.2942 40.3771Z" fill="#FFDD67"/>
<path d="M13.7479 20.2682C15.8001 20.2682 17.4636 18.7874 17.4636 16.9608C17.4636 15.1342 15.8001 13.6534 13.7479 13.6534C11.6958 13.6534 10.0322 15.1342 10.0322 16.9608C10.0322 18.7874 11.6958 20.2682 13.7479 20.2682Z" fill="#664E27"/>
<path d="M30.8417 20.2682C32.8938 20.2682 34.5574 18.7874 34.5574 16.9608C34.5574 15.1342 32.8938 13.6534 30.8417 13.6534C28.7896 13.6534 27.126 15.1342 27.126 16.9608C27.126 18.7874 28.7896 20.2682 30.8417 20.2682Z" fill="#664E27"/>
<path d="M31.6582 26.023C25.6388 29.7934 18.9505 29.7272 12.9311 26.023C12.188 25.5599 11.5934 26.3537 12.0393 27.0813C13.8972 29.7272 17.5386 32.1747 22.2947 32.1747C27.0508 32.1747 30.6921 29.7934 32.55 27.0813C32.9959 26.3537 32.4014 25.5599 31.6582 26.023Z" fill="#664E27"/>
</svg>
