<svg width="75" height="75" viewBox="0 0 75 75" fill="none" xmlns="http://www.w3.org/2000/svg">
<path d="M75 37.5C75 58.25 58.25 75 37.5 75C16.75 75 0 58.25 0 37.5C0 16.75 16.75 0 37.5 0C58.25 0 75 16.75 75 37.5Z" fill="#FFDD67"/>
<path d="M58.7499 45C58.7499 44 58.1249 42.75 56.4999 42.375C52.1249 41.5 45.7499 40.75 37.4999 40.75C29.2499 40.75 22.8749 41.625 18.4999 42.375C16.8749 42.75 16.2499 44 16.2499 45C16.2499 54.125 23.2499 63.25 37.4999 63.25C51.7499 63.25 58.7499 54.125 58.7499 45Z" fill="#664E27"/>
<path d="M33.125 31.1249C30.75 24.7499 27.25 21.4999 23.75 21.4999C20.25 21.4999 16.75 24.7499 14.375 31.1249C14.125 31.7499 15.375 32.8749 16 32.2499C18.25 29.8749 21 28.8749 23.75 28.8749C26.5 28.8749 29.25 29.8749 31.5 32.2499C32.25 32.8749 33.375 31.7499 33.125 31.1249Z" fill="#664E27"/>
<path d="M60.5 31.1249C58.125 24.7499 54.625 21.4999 51.125 21.4999C47.625 21.4999 44.125 24.7499 41.75 31.1249C41.5 31.7499 42.75 32.8749 43.375 32.2499C45.625 29.8749 48.375 28.8749 51.125 28.8749C54 28.8749 56.625 29.8749 58.875 32.2499C59.5 32.8749 60.75 31.7499 60.5 31.1249Z" fill="#664E27"/>
<path d="M53.3755 45.375C50.6255 44.875 44.8755 44.125 37.5005 44.125C30.1255 44.125 24.3755 44.875 21.6255 45.375C20.0005 45.625 19.8755 46.25 20.0005 47.25C20.1255 47.75 20.1255 48.5 20.3755 49.25C20.5005 50 20.7505 50.375 22.0005 50.25C24.3755 50 50.7505 50 53.1255 50.25C54.3755 50.375 54.5005 50 54.7505 49.25C54.8755 48.5 55.0005 47.875 55.1255 47.25C55.1255 46.25 55.0005 45.625 53.3755 45.375Z" fill="#021526"/>
<path d="M75 37.5C75 58.25 58.25 75 37.5 75C16.75 75 0 58.25 0 37.5C0 16.75 16.75 0 37.5 0C58.25 0 75 16.75 75 37.5Z" fill="#FFDD67"/>
<path d="M58.7499 45C58.7499 44 58.1249 42.75 56.4999 42.375C52.1249 41.5 45.7499 40.75 37.4999 40.75C29.2499 40.75 22.8749 41.625 18.4999 42.375C16.8749 42.75 16.2499 44 16.2499 45C16.2499 54.125 23.2499 63.25 37.4999 63.25C51.7499 63.25 58.7499 54.125 58.7499 45Z" fill="#664E27"/>
<path d="M33.125 31.1249C30.75 24.7499 27.25 21.4999 23.75 21.4999C20.25 21.4999 16.75 24.7499 14.375 31.1249C14.125 31.7499 15.375 32.8749 16 32.2499C18.25 29.8749 21 28.8749 23.75 28.8749C26.5 28.8749 29.25 29.8749 31.5 32.2499C32.25 32.8749 33.375 31.7499 33.125 31.1249Z" fill="#664E27"/>
<path d="M60.5 31.1249C58.125 24.7499 54.625 21.4999 51.125 21.4999C47.625 21.4999 44.125 24.7499 41.75 31.1249C41.5 31.7499 42.75 32.8749 43.375 32.2499C45.625 29.8749 48.375 28.8749 51.125 28.8749C54 28.8749 56.625 29.8749 58.875 32.2499C59.5 32.8749 60.75 31.7499 60.5 31.1249Z" fill="#664E27"/>
<path d="M53.3755 45.375C50.6255 44.875 44.8755 44.125 37.5005 44.125C30.1255 44.125 24.3755 44.875 21.6255 45.375C20.0005 45.625 19.8755 46.25 20.0005 47.25C20.1255 47.75 20.1255 48.5 20.3755 49.25C20.5005 50 20.7505 50.25 22.0005 50.25H53.1255C54.3755 50.25 54.5005 50 54.7505 49.25C54.8755 48.5 55.0005 47.875 55.1255 47.25C55.1255 46.25 55.0005 45.625 53.3755 45.375Z" fill="#021526"/>
</svg>
