<svg width="45" height="41" viewBox="0 0 45 41" fill="none" xmlns="http://www.w3.org/2000/svg">
<path d="M22.2942 40.4427C34.607 40.4427 44.5884 31.5581 44.5884 20.5984C44.5884 9.63873 34.607 0.75415 22.2942 0.75415C9.98146 0.75415 0 9.63873 0 20.5984C0 31.5581 9.98146 40.4427 22.2942 40.4427Z" fill="#FFDD67"/>
<path d="M28.9841 32.3064C24.6739 29.1313 19.9178 29.1313 15.6076 32.3064C15.0874 32.7032 14.6415 32.0418 15.0131 31.4464C16.3507 29.1974 18.9517 27.1469 22.2959 27.1469C25.64 27.1469 28.3153 29.1974 29.5786 31.4464C29.9502 31.9756 29.5043 32.6371 28.9841 32.3064Z" fill="#664E27"/>
<path d="M6.09561 15.9017C4.9809 19.0107 6.5415 22.5165 10.0343 23.9056C13.4527 25.3608 17.4657 24.2363 19.4721 21.4581L14.3445 16.3648L6.09561 15.9017Z" fill="white"/>
<path d="M9.06757 16.4973C8.02717 18.4155 8.99326 20.7307 11.1484 21.5906C13.3035 22.5167 15.9045 21.6568 16.8705 19.7385C17.6137 18.4817 9.7364 15.2405 9.06757 16.4973Z" fill="#664E27"/>
<path d="M6.09375 15.9018C7.28277 15.2403 8.69474 14.9095 10.1067 14.9095C11.5187 14.9095 12.9306 15.2403 14.2683 15.7695C15.5316 16.2986 16.7207 17.0924 17.6867 18.0185C18.5785 19.0107 19.3216 20.1352 19.4703 21.392C18.5042 20.5321 17.5381 19.8045 16.4977 19.143C15.4573 18.4815 14.4169 17.9523 13.3765 17.5554C12.2618 17.0924 11.1471 16.7617 9.95808 16.4309C8.62043 16.2325 7.4314 16.0341 6.09375 15.9018Z" fill="#664E27"/>
<path d="M38.4947 15.9017C39.6094 19.0107 38.0488 22.5165 34.556 23.9056C31.1376 25.3608 27.1246 24.2363 25.1182 21.4581L30.2458 16.3648L38.4947 15.9017Z" fill="white"/>
<path d="M35.5223 16.4974C36.5627 18.4157 35.5966 20.7308 33.4415 21.5907C31.2864 22.5168 28.6854 21.6569 27.7193 19.7386C26.9762 18.4818 34.8535 15.2406 35.5223 16.4974Z" fill="#664E27"/>
<path d="M38.4947 15.9019C37.3057 15.2404 35.8937 14.9097 34.4817 14.9097C33.0698 14.9097 31.6578 15.2404 30.3201 15.7696C29.0568 16.2988 27.8678 17.0925 26.9017 18.0186C26.0099 19.0108 25.2668 20.1353 25.1182 21.3921C26.0842 20.5322 27.0503 19.8046 28.0907 19.1431C29.1311 18.4816 30.1715 17.9525 31.2119 17.5556C32.3266 17.0925 33.4413 16.7618 34.6304 16.4311C35.968 16.2326 37.157 16.0342 38.4947 15.9019Z" fill="#664E27"/>
</svg>
