<svg width="45" height="45" viewBox="0 0 45 45" fill="none" xmlns="http://www.w3.org/2000/svg">
<path d="M22.5 44.5957C34.9264 44.5957 45 34.7031 45 22.5C45 10.2968 34.9264 0.404236 22.5 0.404236C10.0736 0.404236 0 10.2968 0 22.5C0 34.7031 10.0736 44.5957 22.5 44.5957Z" fill="#FFDD67"/>
<path d="M13.8737 22.2053C15.9447 22.2053 17.6237 20.5565 17.6237 18.5227C17.6237 16.4888 15.9447 14.84 13.8737 14.84C11.8026 14.84 10.1237 16.4888 10.1237 18.5227C10.1237 20.5565 11.8026 22.2053 13.8737 22.2053Z" fill="#664E27"/>
<path d="M31.1244 22.2053C33.1955 22.2053 34.8744 20.5565 34.8744 18.5227C34.8744 16.4888 33.1955 14.84 31.1244 14.84C29.0533 14.84 27.3744 16.4888 27.3744 18.5227C27.3744 20.5565 29.0533 22.2053 31.1244 22.2053Z" fill="#664E27"/>
<path d="M31.9488 28.6128C25.8738 32.811 19.1238 32.7374 13.0488 28.6128C12.2988 28.0973 11.6988 28.9811 12.1488 29.7913C14.0238 32.7374 17.6988 35.4625 22.4988 35.4625C27.2988 35.4625 30.9738 32.811 32.8488 29.7913C33.2988 28.9811 32.6988 28.0973 31.9488 28.6128Z" fill="#664E27"/>
</svg>
