<svg width="45" height="41" viewBox="0 0 45 41" fill="none" xmlns="http://www.w3.org/2000/svg">
<path d="M22.2942 40.0656C34.607 40.0656 44.5884 31.181 44.5884 20.2213C44.5884 9.26165 34.607 0.377075 22.2942 0.377075C9.98146 0.377075 0 9.26165 0 20.2213C0 31.181 9.98146 40.0656 22.2942 40.0656Z" fill="#FFDD67"/>
<path d="M13.5272 20.6182C15.5793 20.6182 17.2429 19.1375 17.2429 17.3109C17.2429 15.4842 15.5793 14.0035 13.5272 14.0035C11.4751 14.0035 9.81152 15.4842 9.81152 17.3109C9.81152 19.1375 11.4751 20.6182 13.5272 20.6182Z" fill="#664E27"/>
<path d="M30.621 20.6182C32.6731 20.6182 34.3367 19.1375 34.3367 17.3109C34.3367 15.4842 32.6731 14.0035 30.621 14.0035C28.5688 14.0035 26.9053 15.4842 26.9053 17.3109C26.9053 19.1375 28.5688 20.6182 30.621 20.6182Z" fill="#664E27"/>
<path d="M27.2017 30.8048H16.9464C15.8317 30.8048 15.8317 28.1589 16.9464 28.1589H27.1274C28.3164 28.1589 28.3164 30.8048 27.2017 30.8048Z" fill="#664E27"/>
</svg>
