<svg width="45" height="40" viewBox="0 0 45 40" fill="none" xmlns="http://www.w3.org/2000/svg">
<path d="M22.2942 39.7541C34.607 39.7541 44.5884 30.8696 44.5884 19.9099C44.5884 8.95019 34.607 0.0656128 22.2942 0.0656128C9.98146 0.0656128 0 8.95019 0 19.9099C0 30.8696 9.98146 39.7541 22.2942 39.7541Z" fill="#FFDD67"/>
<path d="M13.7479 19.6453C15.8001 19.6453 17.4636 18.1645 17.4636 16.3379C17.4636 14.5113 15.8001 13.0305 13.7479 13.0305C11.6958 13.0305 10.0322 14.5113 10.0322 16.3379C10.0322 18.1645 11.6958 19.6453 13.7479 19.6453Z" fill="#664E27"/>
<path d="M30.8417 19.6453C32.8938 19.6453 34.5574 18.1646 34.5574 16.338C34.5574 14.5113 32.8938 13.0306 30.8417 13.0306C28.7896 13.0306 27.126 14.5113 27.126 16.338C27.126 18.1646 28.7896 19.6453 30.8417 19.6453Z" fill="#664E27"/>
<path d="M15.6066 30.229C19.9168 27.0539 24.6729 27.0539 28.9832 30.229C29.5034 30.6258 29.9492 29.9644 29.5777 29.369C28.24 27.12 25.639 25.0695 22.2949 25.0695C18.9508 25.0695 16.2755 27.12 15.0121 29.369C14.6405 29.9644 15.0864 30.6258 15.6066 30.229Z" fill="#664E27"/>
</svg>
