<svg width="45" height="40" viewBox="0 0 45 40" fill="none" xmlns="http://www.w3.org/2000/svg">
<path d="M44.5884 19.8443C44.5884 30.8247 34.6303 39.6885 22.2942 39.6885C9.95808 39.6885 0 30.8247 0 19.8443C0 8.86377 9.95808 0 22.2942 0C34.6303 0 44.5884 8.86377 44.5884 19.8443Z" fill="#FFDD67"/>
<path d="M34.925 23.8131C34.925 23.2839 34.5534 22.6224 33.5873 22.424C30.9863 21.9609 27.1963 21.5641 22.2916 21.5641C17.3869 21.5641 13.5968 22.0271 10.9959 22.424C10.0298 22.6224 9.6582 23.2839 9.6582 23.8131C9.6582 28.6418 13.8198 33.4706 22.2916 33.4706C30.7634 33.4706 34.925 28.6418 34.925 23.8131Z" fill="#664E27"/>
<path d="M19.6929 16.4708C18.2809 13.0972 16.2001 11.3774 14.1193 11.3774C12.0385 11.3774 9.95772 13.0972 8.54575 16.4708C8.39712 16.8015 9.14026 17.3968 9.51183 17.0661C10.8495 15.8093 12.4844 15.2801 14.1193 15.2801C15.7542 15.2801 17.3891 15.8093 18.7268 17.0661C19.1727 17.3968 19.8415 16.8015 19.6929 16.4708Z" fill="#664E27"/>
<path d="M35.9692 16.4708C34.5573 13.0972 32.4765 11.3774 30.3957 11.3774C28.3149 11.3774 26.2341 13.0972 24.8221 16.4708C24.6735 16.8015 25.4166 17.3968 25.7882 17.0661C27.1259 15.8093 28.7608 15.2801 30.3957 15.2801C32.1049 15.2801 33.6655 15.8093 35.0031 17.0661C35.3747 17.3968 36.1178 16.8015 35.9692 16.4708Z" fill="#664E27"/>
<path d="M31.7333 24.0116C30.0984 23.747 26.68 23.3501 22.2955 23.3501C17.9109 23.3501 14.4925 23.747 12.8576 24.0116C11.8915 24.1439 11.8172 24.4746 11.8915 25.0038C11.9658 25.2684 11.9658 25.6653 12.1144 26.0621C12.1888 26.459 12.3374 26.6575 13.0805 26.5913C14.4925 26.459 30.1727 26.459 31.5847 26.5913C32.3279 26.6575 32.4022 26.459 32.5508 26.0621C32.6251 25.6653 32.6994 25.3345 32.7737 25.0038C32.7737 24.4746 32.6994 24.1439 31.7333 24.0116Z" fill="white"/>
<path d="M44.5884 19.8443C44.5884 30.8247 34.6303 39.6885 22.2942 39.6885C9.95808 39.6885 0 30.8247 0 19.8443C0 8.86377 9.95808 0 22.2942 0C34.6303 0 44.5884 8.86377 44.5884 19.8443Z" fill="#FFDD67"/>
<path d="M34.925 23.8131C34.925 23.2839 34.5534 22.6224 33.5873 22.424C30.9863 21.9609 27.1963 21.5641 22.2916 21.5641C17.3869 21.5641 13.5968 22.0271 10.9959 22.424C10.0298 22.6224 9.6582 23.2839 9.6582 23.8131C9.6582 28.6418 13.8198 33.4706 22.2916 33.4706C30.7634 33.4706 34.925 28.6418 34.925 23.8131Z" fill="#664E27"/>
<path d="M19.6929 16.4708C18.2809 13.0972 16.2001 11.3774 14.1193 11.3774C12.0385 11.3774 9.95772 13.0972 8.54575 16.4708C8.39712 16.8015 9.14026 17.3968 9.51183 17.0661C10.8495 15.8093 12.4844 15.2801 14.1193 15.2801C15.7542 15.2801 17.3891 15.8093 18.7268 17.0661C19.1727 17.3968 19.8415 16.8015 19.6929 16.4708Z" fill="#664E27"/>
<path d="M35.9692 16.4708C34.5573 13.0972 32.4765 11.3774 30.3957 11.3774C28.3149 11.3774 26.2341 13.0972 24.8221 16.4708C24.6735 16.8015 25.4166 17.3968 25.7882 17.0661C27.1259 15.8093 28.7608 15.2801 30.3957 15.2801C32.1049 15.2801 33.6655 15.8093 35.0031 17.0661C35.3747 17.3968 36.1178 16.8015 35.9692 16.4708Z" fill="#664E27"/>
<path d="M31.7333 24.0116C30.0984 23.747 26.68 23.3501 22.2955 23.3501C17.9109 23.3501 14.4925 23.747 12.8576 24.0116C11.8915 24.1439 11.8172 24.4746 11.8915 25.0038C11.9658 25.2684 11.9658 25.6653 12.1144 26.0621C12.1888 26.459 12.3374 26.5913 13.0805 26.5913H31.5847C32.3279 26.5913 32.4022 26.459 32.5508 26.0621C32.6251 25.6653 32.6994 25.3345 32.7737 25.0038C32.7737 24.4746 32.6994 24.1439 31.7333 24.0116Z" fill="white"/>
</svg>
