<svg width="40" height="40" viewBox="0 0 40 40" fill="none" xmlns="http://www.w3.org/2000/svg">
<path d="M32.2017 9.27C31.9485 9.13908 31.7021 8.99556 31.4633 8.84C30.7694 8.38121 30.1332 7.84066 29.5683 7.23C28.1533 5.61167 27.625 3.97 27.4317 2.82167H27.4383C27.2767 1.86667 27.3433 1.25 27.355 1.25H20.9133V26.155C20.9133 26.4883 20.9133 26.82 20.9 27.1467C20.9 27.1867 20.895 27.2233 20.8933 27.2683C20.8933 27.285 20.8933 27.305 20.8883 27.3233V27.3383C20.8207 28.2317 20.5345 29.0948 20.055 29.8515C19.5754 30.6083 18.9173 31.2357 18.1383 31.6783C17.3257 32.1406 16.4066 32.3831 15.4717 32.3817C12.4717 32.3817 10.0383 29.935 10.0383 26.9133C10.0383 23.89 12.4717 21.4433 15.4717 21.4433C16.04 21.4433 16.605 21.5333 17.145 21.71L17.1533 15.15C15.5134 14.9384 13.8473 15.0691 12.2604 15.5338C10.6735 15.9985 9.20012 16.7872 7.93334 17.85C6.8231 18.8142 5.88965 19.9648 5.17501 21.25C4.90334 21.7183 3.87667 23.6033 3.75334 26.66C3.67501 28.3933 4.19667 30.1933 4.44501 30.935V30.9517C4.60001 31.3883 5.20667 32.8817 6.19334 34.14C6.989 35.15 7.92909 36.0373 8.98334 36.7733V36.7567L8.99834 36.7733C12.115 38.89 15.5733 38.7517 15.5733 38.7517C16.1717 38.7267 18.1767 38.7517 20.4533 37.6733C22.9783 36.4767 24.415 34.695 24.415 34.695C25.3335 33.6302 26.064 32.4167 26.575 31.1067C27.1583 29.5733 27.3517 27.7367 27.3517 27.0033V13.7883C27.43 13.835 28.4717 14.5233 28.4717 14.5233C28.4717 14.5233 29.9717 15.485 32.31 16.11C33.9867 16.555 36.2483 16.65 36.2483 16.65V10.255C35.4567 10.3417 33.8483 10.0917 32.2 9.27167L32.2017 9.27Z" fill="black"/>
</svg>
