<svg width="60" height="40" viewBox="0 0 60 40" fill="none" xmlns="http://www.w3.org/2000/svg">
<g clip-path="url(#clip0_101_436)">
<path d="M58.6713 6.23889C58.3272 5.03301 57.656 3.93365 56.7244 3.05028C55.7929 2.16692 54.6336 1.53036 53.362 1.204C48.7065 0 29.9696 0 29.9696 0C29.9696 0 11.2318 0.0364443 6.57625 1.24044C5.30457 1.56682 4.14525 2.20341 3.21373 3.08682C2.2822 3.97023 1.61099 5.06964 1.26691 6.27556C-0.141269 14.1196 -0.687529 26.072 1.30558 33.6022C1.64969 34.8081 2.32092 35.9075 3.25244 36.7908C4.18396 37.6742 5.34327 38.3108 6.61492 38.6371C11.2704 39.8411 30.0078 39.8411 30.0078 39.8411C30.0078 39.8411 48.7449 39.8411 53.4002 38.6371C54.6719 38.3108 55.8312 37.6742 56.7628 36.7909C57.6943 35.9075 58.3656 34.8081 58.7097 33.6022C60.195 25.7471 60.6527 13.802 58.6713 6.23889Z" fill="#FF0000"/>
<path d="M24.0057 28.4577L39.5494 19.9204L24.0057 11.3831V28.4577Z" fill="white"/>
</g>
<defs>
<clipPath id="clip0_101_436">
<rect width="60" height="40" fill="white"/>
</clipPath>
</defs>
</svg>
