<svg width="25" height="16" viewBox="0 0 25 16" fill="none" xmlns="http://www.w3.org/2000/svg">
<path d="M0.550289 1.0736C0.902744 0.706324 1.38071 0.5 1.87909 0.5C2.37746 0.5 2.85543 0.706324 3.20788 1.0736L12.5113 10.7711L21.8148 1.0736C22.1693 0.716732 22.644 0.519265 23.1368 0.523729C23.6296 0.528193 24.101 0.73423 24.4495 1.09746C24.798 1.4607 24.9956 1.95206 24.9999 2.46573C25.0042 2.9794 24.8148 3.47428 24.4724 3.84377L13.8401 14.9264C13.4877 15.2937 13.0097 15.5 12.5113 15.5C12.013 15.5 11.535 15.2937 11.1825 14.9264L0.550289 3.84377C0.197939 3.47638 0 2.97817 0 2.45868C0 1.9392 0.197939 1.44098 0.550289 1.0736Z" fill="#021526"/>
</svg>
