<svg width="20" height="24" viewBox="0 0 20 24" fill="none" xmlns="http://www.w3.org/2000/svg">
<path d="M10 12C11.5471 12 13.0308 11.3679 14.1248 10.2426C15.2188 9.11742 15.8333 7.5913 15.8333 6C15.8333 4.4087 15.2188 2.88258 14.1248 1.75736C13.0308 0.632141 11.5471 0 10 0C8.4529 0 6.96917 0.632141 5.87521 1.75736C4.78125 2.88258 4.16667 4.4087 4.16667 6C4.16667 7.5913 4.78125 9.11742 5.87521 10.2426C6.96917 11.3679 8.4529 12 10 12ZM2.91667 13.7143C2.14312 13.7143 1.40125 14.0304 0.854272 14.593C0.307291 15.1556 0 15.9186 0 16.7143V17.1429C0 19.194 1.26917 20.9289 3.07083 22.1083C4.8825 23.2946 7.335 24 10 24C12.665 24 15.1167 23.2946 16.9292 22.1083C18.7308 20.9289 20 19.194 20 17.1429V16.7143C20 15.9186 19.6927 15.1556 19.1457 14.593C18.5987 14.0304 17.8569 13.7143 17.0833 13.7143H2.91667Z" fill="#F8F8F8"/>
</svg>
