<svg width="80" height="80" viewBox="0 0 80 80" fill="none" xmlns="http://www.w3.org/2000/svg">
<circle cx="40" cy="40" r="40" fill="#0360D9"/>
<path d="M54.5833 37.9167H31.3125L41.4792 27.75C42.2917 26.9375 42.2917 25.6042 41.4792 24.7917C41.2864 24.5985 41.0575 24.4453 40.8055 24.3408C40.5534 24.2362 40.2833 24.1824 40.0104 24.1824C39.7376 24.1824 39.4674 24.2362 39.2154 24.3408C38.9633 24.4453 38.7344 24.5985 38.5417 24.7917L24.8125 38.5208C24.6194 38.7136 24.4661 38.9425 24.3616 39.1945C24.2571 39.4466 24.2032 39.7167 24.2032 39.9896C24.2032 40.2624 24.2571 40.5326 24.3616 40.7846C24.4661 41.0367 24.6194 41.2656 24.8125 41.4583L38.5417 55.1875C38.7346 55.3804 38.9635 55.5334 39.2155 55.6378C39.4675 55.7421 39.7377 55.7959 40.0104 55.7959C40.2832 55.7959 40.5533 55.7421 40.8053 55.6378C41.0573 55.5334 41.2863 55.3804 41.4792 55.1875C41.6721 54.9946 41.825 54.7656 41.9294 54.5136C42.0338 54.2616 42.0875 53.9915 42.0875 53.7187C42.0875 53.446 42.0338 53.1759 41.9294 52.9239C41.825 52.6719 41.6721 52.4429 41.4792 52.25L31.3125 42.0833H54.5833C55.7292 42.0833 56.6667 41.1458 56.6667 40C56.6667 38.8542 55.7292 37.9167 54.5833 37.9167Z" fill="#F8F8F8"/>
</svg>
